# xmcd
#
# Track frame offsets:
#	150
#	20205
#	37563
#	53547
#	71764
#	93138
#	105467
#	120784
#	134901
#	152529
#	163718
#
# Disc length: 2501 seconds
#
# Revision: 0
# Processed by: cddbd v1.5.2PL0 Copyright (c) Steve Scherf et al.
# Submitted via: EasyCDDAExtractor 10.2.0.1
#
DISCID=8009c30b
DTITLE=Various Artist - Gospel Jukebox Vol. 8
DYEAR=2002
DGENRE=Gospel
TTITLE0=Chuck Hancock - The First Step
TTITLE1=Judy DeRamus - He Loved Me Enough
TTITLE2=Judy DeRamus and Shelia Lewis - In A Prison Of Sin
TTITLE3=Faithful Heart - Endless Love
TTITLE4=Steven Warren - Our Spirits Shall Never Be Crushed
TTITLE5=Answered Prayer - Fire In My Bones
TTITLE6=Rhonda Roop - Counting On You, Counting On Me
TTITLE7=Billy Jack Davis - His Sweet Refuge
TTITLE8=Uncommon Man - Every Now And Then
TTITLE9=Steve Warren and Penny Avery - Cheerleader
TTITLE10=Marvell - "4"
EXTD=
EXTT0=
EXTT1=
EXTT2=
EXTT3=
EXTT4=
EXTT5=
EXTT6=
EXTT7=
EXTT8=
EXTT9=
EXTT10=
PLAYORDER=
